<?xml version="1.0" standalone="no"?>
<!DOCTYPE svg PUBLIC "-//W3C//DTD SVG 20010904//EN"
 "http://www.w3.org/TR/2001/REC-SVG-20010904/DTD/svg10.dtd">
<svg version="1.0" xmlns="http://www.w3.org/2000/svg"
 width="180.000000pt" height="180.000000pt" viewBox="0 0 180.000000 180.000000"
 preserveAspectRatio="xMidYMid meet">

<g transform="translate(0.000000,180.000000) scale(0.100000,-0.100000)"
fill="#000000" stroke="none">
<path d="M746 1745 c-160 -31 -303 -105 -423 -218 -169 -161 -253 -355 -253
-588 0 -211 71 -385 219 -543 248 -261 645 -335 977 -181 219 101 384 295 446
522 28 108 29 287 0 394 -81 303 -308 525 -616 604 -90 23 -256 27 -350 10z
m341 -45 c261 -62 473 -248 561 -494 62 -171 66 -336 12 -498 -39 -115 -85
-192 -169 -281 -105 -111 -213 -177 -368 -223 -122 -37 -309 -39 -427 -6 -231
66 -416 218 -516 425 -21 45 -47 114 -56 152 -23 100 -21 259 6 359 75 283
311 510 594 571 95 21 266 18 363 -5z"/>
<path d="M860 1615 c0 -68 2 -75 20 -75 15 0 20 7 20 25 0 21 5 25 28 25 34 0
52 16 52 46 0 35 -26 54 -76 54 l-44 0 0 -75z m78 22 c3 -22 -1 -27 -17 -27
-17 0 -21 6 -21 31 0 24 4 30 18 27 10 -2 18 -14 20 -31z m-53 -16 c2 -17 -1
-33 -6 -36 -5 -4 -9 13 -9 36 0 48 9 48 15 0z"/>
<path d="M1016 1663 c-3 -10 -8 -36 -11 -58 -4 -22 -9 -47 -11 -56 -3 -10 3
-19 16 -22 15 -4 21 0 25 16 17 86 23 122 19 129 -9 14 -33 8 -38 -9z m20 -55
c-4 -24 -12 -47 -18 -53 -7 -7 -9 2 -4 30 3 22 6 46 6 53 0 6 5 12 11 12 8 0
9 -14 5 -42z"/>
<path d="M653 1653 c-16 -6 -18 -163 -3 -163 6 0 10 11 10 24 0 30 37 42 61
20 10 -9 27 -14 39 -12 20 3 18 8 -30 68 -55 69 -58 71 -77 63z m57 -55 c16
-18 29 -40 29 -48 0 -15 -69 57 -69 73 0 14 10 7 40 -25z m-26 -14 c9 -22 8
-24 -9 -24 -8 0 -15 9 -15 20 0 24 15 27 24 4z"/>
<path d="M1082 1608 c-11 -29 -23 -61 -27 -70 -4 -11 -3 -18 4 -18 6 0 17 12
23 28 l12 27 5 -39 c8 -50 24 -55 52 -17 13 17 29 31 36 31 7 0 10 6 7 13 -5
15 23 44 33 34 3 -4 -2 -28 -12 -54 -17 -43 -19 -45 -25 -24 l-5 24 -13 -27
c-7 -15 -10 -32 -7 -37 15 -23 35 -4 61 57 23 55 25 67 13 75 -22 14 -26 12
-55 -26 -36 -48 -48 -45 -39 11 5 34 3 49 -7 55 -25 16 -35 9 -56 -43z m51
-41 c5 -47 3 -56 -7 -48 -14 12 -28 99 -19 114 10 17 21 -9 26 -66z"/>
<path d="M523 1595 c-48 -21 -66 -61 -38 -89 12 -12 27 -14 61 -9 42 5 46 4
42 -13 -2 -13 -15 -21 -38 -25 -29 -5 -32 -7 -17 -14 12 -5 31 -2 53 8 27 13
34 23 34 46 0 39 -19 52 -70 49 -53 -4 -66 18 -21 33 17 6 31 15 31 20 0 11 2
11 -37 -6z m75 -63 c6 -1 12 -6 12 -12 0 -6 -27 -10 -60 -10 -41 0 -60 4 -60
13 0 11 56 15 108 9z"/>
<path d="M1258 1522 c-21 -32 -38 -61 -38 -65 0 -9 72 -57 85 -57 5 1 -3 11
-19 25 -25 20 -28 26 -16 40 7 9 20 13 31 10 22 -7 25 5 7 23 -9 10 -9 16 4
28 14 15 18 15 42 -1 14 -10 26 -13 26 -7 0 7 -72 62 -82 62 -2 0 -20 -26 -40
-58z m26 -16 c-9 -14 -21 -26 -26 -26 -6 0 -4 10 4 23 8 12 18 29 23 37 6 9
10 10 12 3 3 -7 -3 -23 -13 -37z"/>
<path d="M381 1494 c-34 -28 -40 -64 -16 -84 13 -10 24 -11 57 -1 28 9 44 9
51 2 14 -14 -9 -41 -34 -41 -11 0 -19 -4 -19 -10 0 -19 41 -10 65 15 30 29 32
56 5 80 -16 14 -24 15 -51 6 -18 -6 -38 -11 -45 -11 -24 0 -15 30 11 42 14 6
25 15 25 20 0 15 -18 8 -49 -18z m59 -71 c-52 -13 -70 -11 -70 9 0 6 2 9 5 6
3 -3 25 0 48 7 30 9 46 10 55 2 10 -8 1 -14 -38 -24z"/>
<path d="M888 1483 c7 -3 16 -2 19 1 4 3 -2 6 -13 5 -11 0 -14 -3 -6 -6z"/>
<path d="M1370 1441 c-30 -27 -52 -52 -47 -57 4 -4 23 8 43 27 l35 34 -7 -30
c-4 -16 -11 -40 -15 -52 -10 -27 -2 -53 16 -53 15 0 115 80 115 92 0 13 -9 9
-46 -18 -37 -29 -41 -23 -22 38 9 32 9 41 -3 53 -12 12 -21 8 -69 -34z m61 6
c-4 -77 -22 -129 -38 -113 -9 8 20 127 30 123 5 -1 8 -6 8 -10z"/>
<path d="M788 1473 c7 -3 16 -2 19 1 4 3 -2 6 -13 5 -11 0 -14 -3 -6 -6z"/>
<path d="M928 1383 c-14 -16 -31 -38 -37 -50 -15 -30 -10 -113 7 -113 19 0 25
26 14 57 -5 16 -6 37 -1 48 4 11 8 15 8 9 1 -5 8 -19 16 -30 14 -18 14 -17 4
9 -10 21 -9 33 1 55 21 41 21 42 17 42 -2 0 -15 -12 -29 -27z"/>
<path d="M291 1374 c-57 -24 -73 -105 -28 -142 29 -24 80 -26 109 -3 79 62 11
184 -81 145z m70 -14 c10 -6 19 -15 19 -20 0 -11 -57 8 -66 21 -7 12 23 11 47
-1z m4 -50 c45 -50 -31 -85 -80 -36 -29 29 -31 39 -10 60 18 18 63 6 90 -24z
m-60 -78 c-17 -4 -45 15 -45 30 0 5 14 1 31 -9 22 -13 26 -19 14 -21z"/>
<path d="M1210 1386 c0 -2 8 -10 18 -17 15 -13 16 -12 3 4 -13 16 -21 21 -21
13z"/>
<path d="M530 1360 c0 -5 5 -10 10 -10 6 0 10 5 10 10 0 6 -4 10 -10 10 -5 0
-10 -4 -10 -10z"/>
<path d="M1290 1318 c24 -27 45 -48 47 -48 8 0 0 9 -44 50 l-48 45 45 -47z"/>
<path d="M1530 1339 c14 -25 18 -20 -47 -53 -50 -25 -66 -47 -44 -61 6 -3 35
7 65 22 l55 27 20 -25 c11 -13 20 -20 21 -15 0 15 -63 126 -72 126 -5 0 -4 -9
2 -21z m20 -47 c0 -11 -66 -42 -88 -42 -9 1 3 12 28 25 49 26 60 29 60 17z"/>
<path d="M817 1283 c-3 -15 -3 -50 -1 -78 2 -27 2 -44 -2 -37 -10 20 -22 14
-49 -25 -25 -37 -34 -93 -15 -93 6 0 10 10 10 23 0 32 42 71 58 55 9 -9 12 -5
13 18 1 16 0 37 -1 48 -1 11 3 15 9 12 8 -5 8 0 1 18 -10 27 -2 34 17 15 19
-19 2 33 -18 54 -16 17 -17 17 -22 -10z"/>
<path d="M1053 1242 c0 -16 6 -29 13 -29 9 0 9 8 2 29 -6 15 -11 28 -12 28 -2
0 -3 -13 -3 -28z"/>
<path d="M981 1208 c4 -48 -1 -57 -38 -67 -20 -6 -40 -8 -44 -6 -26 17 -84
-93 -108 -202 -26 -118 -50 -165 -124 -236 -49 -47 -59 -62 -51 -75 25 -39
119 -36 203 8 42 21 128 109 159 161 35 58 69 159 76 226 7 59 6 63 -24 97
-22 24 -30 42 -26 56 3 11 9 29 12 40 4 15 1 20 -16 20 -15 0 -20 -6 -19 -22z
m-31 -82 c0 -3 -13 -14 -30 -26 -24 -17 -29 -18 -24 -5 4 9 16 21 28 25 26 11
26 11 26 6z m-70 -61 c0 -8 -9 -29 -19 -47 -27 -45 -53 -168 -34 -161 22 9
-40 -85 -63 -96 -21 -9 -21 -9 3 34 13 25 33 90 45 147 11 57 26 113 34 126
15 23 34 22 34 -3z m36 -42 c-9 -37 -56 -73 -56 -43 0 23 31 70 46 70 13 0 15
-6 10 -27z m-226 -348 c-7 -8 -18 -15 -24 -15 -6 0 -2 7 8 15 25 19 32 19 16
0z"/>
<path d="M180 1212 c0 -5 18 -14 40 -21 50 -15 51 -27 3 -36 -49 -9 -73 -22
-73 -41 0 -17 1 -17 93 -44 46 -13 67 -15 64 -7 -2 6 -32 19 -67 28 -35 9 -66
21 -68 27 -1 5 22 17 52 26 30 9 56 21 58 27 4 11 38 2 38 -11 0 -10 -56 -30
-86 -30 -13 0 -24 -5 -24 -11 0 -7 10 -9 26 -5 15 4 40 10 58 13 31 6 46 18
46 39 0 6 -33 21 -74 32 -84 25 -86 25 -86 14z"/>
<path d="M1460 1191 c0 -5 10 -11 22 -13 12 -2 28 -14 35 -28 11 -22 10 -27
-8 -40 -13 -10 -18 -22 -13 -33 3 -9 8 -17 11 -17 3 0 107 67 131 85 1 1 0 9
-4 18 -4 11 -24 18 -62 22 -32 3 -69 9 -84 11 -16 3 -28 1 -28 -5z m120 -31
c0 -5 7 -7 15 -4 25 10 17 -4 -20 -32 -20 -15 -39 -24 -43 -20 -4 4 4 16 18
26 21 15 21 18 6 17 -10 -1 -21 4 -23 11 -3 7 5 12 21 12 14 0 26 -4 26 -10z"/>
<path d="M1062 1174 c-9 -10 -10 -19 -3 -31 8 -15 10 -14 16 10 9 33 5 40 -13
21z"/>
<path d="M715 1089 c-4 -12 -2 -26 3 -31 8 -8 10 -1 10 21 -1 36 -4 39 -13 10z"/>
<path d="M1113 1098 c-19 -25 -23 -37 -14 -42 5 -3 14 8 20 24 11 32 9 37 -6
18z"/>
<path d="M1105 1000 l-8 -35 -7 30 c-7 28 -8 28 -9 -12 -1 -36 2 -42 19 -40
25 2 32 23 22 62 l-8 30 -9 -35z"/>
<path d="M1452 990 c0 -14 2 -19 5 -12 2 6 2 18 0 25 -3 6 -5 1 -5 -13z"/>
<path d="M688 964 c-2 -23 -8 -38 -14 -37 -7 1 -14 -11 -16 -27 -4 -30 5 -40
17 -19 5 6 12 4 22 -8 13 -16 14 -14 9 25 -4 39 -2 43 15 39 27 -7 24 15 -5
42 l-25 23 -3 -38z"/>
<path d="M1148 910 c-7 -16 -18 -30 -25 -30 -6 0 -15 -4 -18 -10 -12 -19 14
-10 44 16 17 14 31 32 31 40 0 24 -18 15 -32 -16z"/>
<path d="M1445 893 c-12 -27 -13 -53 -2 -46 5 3 7 -8 3 -28 -6 -29 -5 -31 5
-15 11 18 15 94 5 103 -2 2 -7 -4 -11 -14z"/>
<path d="M631 864 c0 -11 3 -14 6 -6 3 7 2 16 -1 19 -3 4 -6 -2 -5 -13z"/>
<path d="M341 844 c0 -11 3 -14 6 -6 3 7 2 16 -1 19 -3 4 -6 -2 -5 -13z"/>
<path d="M1399 843 c-13 -16 -12 -17 4 -4 16 13 21 21 13 21 -2 0 -10 -8 -17
-17z"/>
<path d="M1079 800 c-20 -16 -21 -19 -6 -20 9 0 20 0 24 -1 4 0 10 9 15 20 9
26 -3 27 -33 1z"/>
<path d="M1398 803 c-19 -23 -31 -43 -24 -43 2 0 14 14 26 30 23 33 22 40 -2
13z"/>
<path d="M999 733 c-13 -17 -13 -17 6 -3 11 8 22 16 24 17 2 2 0 3 -6 3 -6 0
-17 -8 -24 -17z"/>
<path d="M1399 715 c-13 -19 -27 -35 -31 -35 -5 0 -8 -5 -8 -11 0 -15 -62 -79
-76 -79 -7 0 -15 -7 -18 -16 -4 -10 -2 -13 7 -8 6 4 3 -3 -8 -15 -20 -23 -20
-23 0 -20 11 2 22 15 25 29 3 14 18 31 32 38 15 7 30 21 33 31 3 11 12 21 19
24 14 6 60 87 53 93 -2 3 -15 -11 -28 -31z"/>
<path d="M1441 724 c0 -11 3 -14 6 -6 3 7 2 16 -1 19 -3 4 -6 -2 -5 -13z"/>
<path d="M1520 731 c0 -5 5 -13 10 -16 6 -3 10 -2 10 4 0 5 -4 13 -10 16 -5 3
-10 2 -10 -4z"/>
<path d="M1016 715 c-11 -8 -16 -18 -12 -22 3 -4 16 3 29 15 24 25 12 29 -17
7z"/>
<path d="M1311 714 c0 -11 3 -14 6 -6 3 7 2 16 -1 19 -3 4 -6 -2 -5 -13z"/>
<path d="M957 669 c8 -8 16 -8 30 0 16 9 14 10 -11 11 -22 0 -27 -3 -19 -11z"/>
<path d="M1461 664 c0 -11 3 -14 6 -6 3 7 2 16 -1 19 -3 4 -6 -2 -5 -13z"/>
<path d="M1431 613 c11 -34 19 -42 19 -20 0 7 -7 22 -15 33 -13 17 -14 16 -4
-13z"/>
<path d="M1250 619 c0 -5 5 -7 10 -4 6 3 10 8 10 11 0 2 -4 4 -10 4 -5 0 -10
-5 -10 -11z"/>
<path d="M490 568 c24 -27 45 -48 47 -48 8 0 0 9 -44 50 l-48 45 45 -47z"/>
<path d="M1076 544 c-17 -12 -17 -14 -4 -14 9 0 20 5 23 11 11 17 2 18 -19 3z"/>
<path d="M1330 495 c0 -8 2 -15 4 -15 2 0 6 7 10 15 3 8 1 15 -4 15 -6 0 -10
-7 -10 -15z"/>
<path d="M1116 455 c-11 -8 -15 -15 -9 -15 6 0 16 7 23 15 16 19 11 19 -14 0z"/>
<path d="M1321 454 c0 -11 3 -14 6 -6 3 7 2 16 -1 19 -3 4 -6 -2 -5 -13z"/>
<path d="M813 403 c9 -2 23 -2 30 0 6 3 -1 5 -18 5 -16 0 -22 -2 -12 -5z"/>
<path d="M933 403 c9 -2 23 -2 30 0 6 3 -1 5 -18 5 -16 0 -22 -2 -12 -5z"/>
<path d="M1087 397 c-11 -29 -9 -43 4 -30 6 6 9 19 7 29 -3 18 -4 18 -11 1z"/>
</g>
</svg>
