<?xml version="1.0" standalone="no"?>
<!DOCTYPE svg PUBLIC "-//W3C//DTD SVG 20010904//EN"
 "http://www.w3.org/TR/2001/REC-SVG-20010904/DTD/svg10.dtd">
<svg version="1.0" xmlns="http://www.w3.org/2000/svg"
 width="180.000000pt" height="180.000000pt" viewBox="0 0 180.000000 180.000000"
 preserveAspectRatio="xMidYMid meet">

<g transform="translate(0.000000,180.000000) scale(0.100000,-0.100000)"
fill="#000000" stroke="none">
<path d="M721 1749 c-127 -25 -283 -101 -383 -186 -182 -156 -283 -359 -295
-594 -21 -391 225 -725 623 -845 79 -24 105 -27 234 -27 129 0 155 3 234 27
256 77 438 228 546 451 62 126 83 234 77 385 -9 229 -93 409 -265 572 -164
154 -361 229 -602 227 -69 -1 -145 -5 -169 -10z m347 -35 c215 -44 411 -178
533 -362 87 -132 123 -258 123 -427 0 -137 -15 -208 -70 -324 -109 -233 -325
-404 -576 -457 -106 -23 -282 -20 -382 6 -236 61 -438 223 -541 435 -97 198
-108 392 -36 603 93 269 333 475 622 531 74 15 244 12 327 -5z"/>
<path d="M857 1693 c-4 -3 -7 -39 -7 -80 0 -66 2 -73 20 -73 15 0 20 7 20 25
0 19 5 25 23 25 30 0 67 27 67 49 0 10 -8 25 -17 33 -19 17 -96 32 -106 21z
m76 -35 c14 -22 1 -48 -23 -48 -15 0 -20 7 -20 28 0 44 22 54 43 20z m-53 -38
c0 -16 -4 -30 -9 -30 -8 0 -9 43 -2 58 5 11 11 -3 11 -28z"/>
<path d="M1015 1677 c-7 -21 -25 -118 -25 -132 0 -8 8 -15 19 -15 14 0 21 12
30 57 6 31 11 64 11 74 0 20 -29 34 -35 16z m10 -84 c-3 -19 -9 -33 -12 -30
-3 3 -2 25 2 49 5 24 10 37 12 30 3 -7 2 -29 -2 -49z"/>
<path d="M637 1653 c-11 -11 -8 -163 3 -163 6 0 10 11 10 25 0 36 39 51 62 23
17 -19 54 -22 49 -3 -1 6 -22 36 -47 68 -43 54 -62 66 -77 50z m38 -23 c3 -5
1 -10 -4 -10 -6 0 -11 5 -11 10 0 6 2 10 4 10 3 0 8 -4 11 -10z m5 -56 c0 -8
-7 -14 -15 -14 -10 0 -15 10 -15 26 0 22 2 25 15 14 8 -7 15 -19 15 -26z m40
1 c20 -24 6 -28 -15 -5 -10 11 -13 20 -8 20 6 0 16 -7 23 -15z"/>
<path d="M1091 1638 c-5 -13 -16 -40 -25 -62 -18 -44 -20 -56 -7 -56 5 0 15
15 22 33 l13 32 4 -42 c4 -53 29 -58 55 -13 25 41 39 38 21 -5 -8 -20 -12 -40
-9 -45 14 -23 32 -5 58 57 26 63 26 69 11 80 -14 11 -23 6 -56 -30 l-38 -42 2
55 c2 50 0 55 -20 58 -15 2 -25 -3 -31 -20z m39 -66 c0 -33 -4 -52 -9 -46 -10
10 -21 101 -13 108 13 14 22 -10 22 -62z m75 -33 l-15 -34 3 35 c2 20 7 42 12
50 17 27 17 -13 0 -51z"/>
<path d="M478 1581 c-30 -27 -31 -31 -20 -56 12 -26 15 -27 62 -21 75 10 82
-27 8 -44 l-33 -8 38 -1 c25 -1 44 6 57 19 23 23 24 33 10 61 -9 15 -22 19
-65 19 -30 0 -55 4 -55 8 0 14 23 32 41 32 10 0 21 5 24 10 14 22 -37 8 -67
-19z m90 -47 c12 -2 22 -8 22 -12 0 -9 -102 -3 -112 7 -9 8 56 12 90 5z"/>
<path d="M1255 1525 c-19 -31 -35 -59 -35 -63 0 -10 83 -62 89 -56 3 3 -8 15
-24 28 -26 21 -28 26 -16 40 9 11 21 14 35 10 18 -6 19 -5 8 9 -13 16 -8 57 7
57 4 0 16 -7 27 -15 25 -19 40 -19 23 1 -12 14 -61 44 -73 44 -3 0 -21 -25
-41 -55z m25 -15 c-6 -12 -14 -19 -17 -17 -2 3 1 15 7 27 6 12 14 19 17 17 2
-3 -1 -15 -7 -27z"/>
<path d="M385 1520 c-34 -13 -57 -46 -53 -77 3 -29 14 -32 98 -21 41 5 33 -32
-10 -48 l-35 -12 31 -1 c42 -1 79 38 70 74 -8 33 -30 41 -77 28 -51 -13 -72 0
-41 26 12 11 28 21 35 24 6 2 10 7 7 9 -3 3 -14 2 -25 -2z m75 -70 c0 -5 -9
-10 -21 -10 -11 0 -29 -5 -40 -11 -12 -6 -28 -7 -37 -4 -13 6 -7 10 23 20 50
16 75 18 75 5z"/>
<path d="M1370 1445 c-57 -58 -60 -78 -3 -23 36 35 39 30 22 -41 -8 -35 -7
-47 4 -58 11 -11 22 -5 67 36 30 27 52 52 47 57 -4 4 -21 -5 -37 -21 -16 -16
-32 -26 -35 -23 -3 2 1 25 9 51 12 41 12 47 -3 61 -16 14 -22 11 -71 -39z m55
-32 c-4 -32 -11 -62 -17 -68 -7 -7 -8 4 -3 35 4 25 9 54 10 65 4 26 4 25 11
25 4 0 3 -26 -1 -57z"/>
<path d="M788 1473 c7 -3 16 -2 19 1 4 3 -2 6 -13 5 -11 0 -14 -3 -6 -6z"/>
<path d="M236 1359 c-44 -52 -27 -107 38 -129 28 -9 40 -8 64 4 33 17 42 34
42 80 0 74 -95 104 -144 45z m105 11 c5 0 9 -4 9 -10 0 -14 -13 -12 -36 6 -17
14 -17 15 -1 10 10 -3 23 -6 28 -6z m-2 -44 c31 -31 22 -66 -18 -66 -34 0 -81
34 -81 59 0 46 55 50 99 7z m-59 -71 c16 -19 0 -19 -26 0 -16 12 -16 14 -3 15
9 0 22 -7 29 -15z"/>
<path d="M1230 1376 c0 -2 8 -10 18 -17 15 -13 16 -12 3 4 -13 16 -21 21 -21
13z"/>
<path d="M510 1360 c0 -5 5 -10 10 -10 6 0 10 5 10 10 0 6 -4 10 -10 10 -5 0
-10 -4 -10 -10z"/>
<path d="M1540 1361 c0 -6 5 -13 10 -16 19 -12 10 -21 -45 -48 -52 -25 -68
-48 -45 -62 6 -4 34 7 64 24 l54 31 15 -22 c30 -46 27 -9 -5 45 -31 53 -48 70
-48 48z m20 -59 c0 -10 -50 -35 -57 -28 -3 2 8 11 24 20 34 18 33 18 33 8z"/>
<path d="M1310 1308 c24 -27 45 -48 47 -48 8 0 0 9 -44 50 l-48 45 45 -47z"/>
<path d="M455 1310 c-3 -5 -1 -10 4 -10 6 0 11 5 11 10 0 6 -2 10 -4 10 -3 0
-8 -4 -11 -10z"/>
<path d="M1030 1237 c0 -50 -18 -66 -75 -69 -31 -2 -50 -8 -50 -15 0 -7 -10
-19 -21 -27 -29 -20 -51 -71 -80 -177 -33 -124 -56 -163 -142 -246 -82 -80
-84 -93 -15 -112 82 -23 219 35 306 129 84 91 136 202 152 326 6 48 4 54 -26
89 -31 35 -32 39 -22 78 12 45 10 57 -13 57 -9 0 -14 -11 -14 -33z m-77 -111
c-15 -13 -30 -22 -32 -20 -7 7 31 44 46 44 8 0 2 -10 -14 -24z m-74 -93 c-16
-30 -29 -64 -29 -75 0 -10 -4 -27 -9 -36 -16 -32 -23 -74 -10 -67 23 15 -10
-30 -52 -70 -40 -38 -41 -38 -20 -8 33 49 61 118 71 176 4 28 14 66 21 82 7
17 11 34 10 40 -1 5 6 15 15 22 32 23 33 -7 3 -64z m-204 -363 c-3 -5 -11 -10
-16 -10 -6 0 -7 5 -4 10 3 6 11 10 16 10 6 0 7 -4 4 -10z"/>
<path d="M1375 1226 c10 -14 19 -26 22 -26 7 0 -17 39 -28 46 -6 3 -3 -5 6
-20z"/>
<path d="M154 1222 c4 -7 15 -12 24 -12 9 -1 31 -7 47 -14 l30 -13 -35 -10
c-19 -6 -47 -14 -62 -17 -19 -4 -28 -13 -28 -26 0 -15 14 -23 69 -40 75 -22
95 -25 87 -11 -3 5 -26 14 -51 20 -55 14 -51 27 11 37 42 6 74 25 74 44 0 8
-77 34 -141 47 -23 4 -30 3 -25 -5z m133 -49 c4 -12 -11 -18 -67 -27 l-35 -5
38 16 c20 8 37 20 37 25 0 13 23 5 27 -9z m-107 -43 c0 -5 -7 -10 -15 -10 -8
0 -15 5 -15 10 0 6 7 10 15 10 8 0 15 -4 15 -10z"/>
<path d="M1508 1187 c39 -12 54 -51 28 -70 -19 -14 -11 -51 9 -43 35 13 115
80 115 95 0 15 -12 19 -67 24 -38 4 -79 6 -93 6 -22 -1 -22 -2 8 -12z m108
-21 c12 -13 10 -18 -17 -36 -16 -12 -33 -19 -37 -15 -4 4 -2 10 4 12 6 2 20
10 30 19 18 13 17 14 -8 8 -22 -5 -28 -2 -28 10 0 20 36 21 56 2z"/>
<path d="M1411 1170 c14 -31 19 -36 19 -24 0 6 -7 19 -16 30 -14 18 -14 18 -3
-6z"/>
<path d="M1472 980 c0 -14 2 -19 5 -12 2 6 2 18 0 25 -3 6 -5 1 -5 -13z"/>
<path d="M303 920 c0 -25 2 -35 4 -22 2 12 2 32 0 45 -2 12 -4 2 -4 -23z"/>
<path d="M1446 863 c-16 -21 -21 -30 -10 -20 30 25 37 21 30 -15 -4 -26 -3
-29 5 -15 5 9 9 33 7 52 l-3 35 -29 -37z"/>
<path d="M1379 803 c-13 -16 -12 -17 4 -4 16 13 21 21 13 21 -2 0 -10 -8 -17
-17z"/>
<path d="M1404 778 l-19 -23 23 19 c21 18 27 26 19 26 -2 0 -12 -10 -23 -22z"/>
<path d="M1447 761 c-4 -17 -3 -21 5 -13 5 5 8 16 6 23 -3 8 -7 3 -11 -10z"/>
<path d="M1534 721 c20 -22 26 -25 26 -13 0 4 -10 13 -22 21 -23 14 -23 14 -4
-8z"/>
<path d="M1408 695 c-16 -18 -28 -37 -28 -42 0 -11 -68 -76 -95 -91 -14 -8
-16 -11 -5 -12 17 0 130 106 130 122 0 6 7 20 17 30 9 10 14 20 12 22 -2 1
-16 -12 -31 -29z"/>
<path d="M1482 710 c0 -14 2 -19 5 -12 2 6 2 18 0 25 -3 6 -5 1 -5 -13z"/>
<path d="M1471 644 c0 -11 3 -14 6 -6 3 7 2 16 -1 19 -3 4 -6 -2 -5 -13z"/>
<path d="M1265 620 c-10 -11 -16 -22 -13 -25 3 -3 13 6 22 20 20 30 16 32 -9
5z"/>
<path d="M400 606 c0 -2 8 -10 18 -17 15 -13 16 -12 3 4 -13 16 -21 21 -21 13z"/>
<path d="M1440 593 c0 -4 5 -15 10 -23 8 -13 10 -13 10 2 0 9 -4 20 -10 23 -5
3 -10 3 -10 -2z"/>
<path d="M460 535 c19 -19 36 -35 39 -35 3 0 -10 16 -29 35 -19 19 -36 35 -39
35 -3 0 10 -16 29 -35z"/>
<path d="M1070 520 c-14 -11 -20 -20 -14 -20 6 0 19 9 29 20 23 25 17 25 -15
0z"/>
<path d="M1266 524 c-11 -8 -16 -14 -10 -14 13 0 39 18 34 24 -3 2 -14 -2 -24
-10z"/>
<path d="M1345 489 c-4 -6 -5 -12 -2 -15 2 -3 7 2 10 11 7 17 1 20 -8 4z"/>
<path d="M520 486 c0 -2 8 -10 18 -17 15 -13 16 -12 3 4 -13 16 -21 21 -21 13z"/>
<path d="M1114 428 l-19 -23 23 19 c21 18 27 26 19 26 -2 0 -12 -10 -23 -22z"/>
<path d="M1321 434 c0 -11 3 -14 6 -6 3 7 2 16 -1 19 -3 4 -6 -2 -5 -13z"/>
<path d="M853 363 c9 -2 25 -2 35 0 9 3 1 5 -18 5 -19 0 -27 -2 -17 -5z"/>
<path d="M1077 349 c-4 -16 -3 -18 9 -8 7 6 11 15 8 20 -8 13 -11 11 -17 -12z"/>
</g>
</svg>
